<?xml version="1.0" encoding="utf-8"?>
<!-- Generator: Adobe Illustrator 24.1.1, SVG Export Plug-In . SVG Version: 6.00 Build 0)  -->
<svg version="1.1" id="Layer_1" xmlns="http://www.w3.org/2000/svg" xmlns:xlink="http://www.w3.org/1999/xlink" x="0px" y="0px"
	 viewBox="0 0 500 160.7" style="enable-background:new 0 0 500 160.7;" xml:space="preserve">
<style type="text/css">
	.st0{fill:#2075BC;}
	.st1{fill:#716E7D;}
</style>
<g>
	<path class="st0" d="M122.8,36c0.7,0,1.2,0,1.7,0c9,0,18,0,27,0c1.4,0,2,0.3,2.3,1.8c1.6,8.1,2.2,16.2,2.3,24.4
		c0.1,8.5,0.4,17,0.2,25.5c-0.1,9-0.4,18.1-1.1,27.1c-0.6,7.3-2.2,14.5-5.5,21.2c-4.8,9.7-12.7,15.4-22.9,18.1
		c-8.4,2.2-16.9,2.5-25.5,2.2c-5.7-0.2-11.2-1-16.6-2.6c-10.5-3.1-17.9-9.6-22.2-19.6c-2.4-5.7-3.6-11.7-4.3-17.8
		c-1.5-13.4-1.2-26.9-1.1-40.4c0-8.4,0.2-16.8,0.6-25.2c0.3-4.5,1.3-9,2-13.4c0.1-0.4,0.8-1,1.2-1c9.5-0.1,19,0,28.5,0
		c0.1,0,0.3,0.1,0.5,0.2c-0.6,1.5-1.4,2.9-1.8,4.5c-0.8,3.7-2,7.5-2,11.3c-0.3,17.8-0.4,35.5-0.3,53.3c0,6.3,0.5,12.7,3.4,18.6
		c3.2,6.3,8.3,9.5,15.3,9.9c4.3,0.3,8.4-0.2,12.3-2.3c4.9-2.8,7.5-7.3,8.9-12.6c1.4-5.3,1.8-10.7,1.8-16.1c0-14.3,0.1-28.5,0-42.8
		c0-6.6-0.5-13.1-2.7-19.4C124.3,39.2,123.6,37.8,122.8,36z"/>
	<path class="st0" d="M163.5,36c0.8,0,1.4,0,2,0c108,0,216.1,0,324.1,0c2.2,0,2.2,0,2.2,2.2c0,3.1,0.4,2.7-2.8,2.7
		c-87.1,0-174.2,0-261.3,0c-0.2,0-0.4,0-0.6,0c-2.2,0-2.2,0-2.2,2.1c0,19.2,0,38.3,0,57.5c0,12.4,0,24.9,0,37.3c0,5.8,0,11.6,0,17.4
		c0,1.1-0.3,1.5-1.4,1.5c-8.4,0-16.7-0.1-25.1,0c-1.6,0-1.5-0.9-1.5-1.9c0-14.6,0-29.2,0-43.7c0-22.6,0-45.2,0-67.9
		c0-2.2-0.1-2.3-2.3-2.3c-9.5,0-18.9,0-28.4,0c-2.9,0-2.9,0-2.9-2.9C163.4,37.4,163.5,36.8,163.5,36z"/>
	<path class="st0" d="M33.1,96.6c0,19.4,0,38.8,0,58.1c0,2,0,2-2,2c-8,0-16.1,0-24.1,0c-1.5,0-2-0.5-1.9-2c0-39,0-77.9,0-116.9
		C5,36.4,5.5,36,7,36c8.1,0.1,16.2,0.1,24.3,0c1.6,0,1.9,0.5,1.9,2C33.1,57.5,33.1,77,33.1,96.6z"/>
	<path class="st1" d="M440.9,50.3c3.8,0,7.3,0,11.2,0c0,19.9,0,39.9,0,59.8c0.2,0,0.3,0.1,0.5,0.1c0.3-0.3,0.5-0.7,0.8-1
		c4.9-5.9,9.8-11.8,14.7-17.7c2.7-3.3,5.5-6.5,8.3-9.8c0.4-0.5,1.2-1,1.8-1c4-0.1,7.9,0,11.9,0c0.1,0,0.3,0.1,0.6,0.2
		c-2.3,2.4-4.5,4.8-6.7,7.1c-5.7,6.1-11.4,12.2-17.2,18.2c-0.7,0.8-0.4,1.3,0,1.9c5.7,10,11.4,20,17.1,30c3.3,5.7,6.5,11.4,9.8,17.1
		c0.2,0.4,0.4,0.8,0.7,1.5c-3.2,0-6.3-0.2-9.2,0.1c-3.3,0.4-5.1-0.8-6.6-3.9c-6.1-12.3-12.6-24.5-19-36.7c-0.1-0.3-0.3-0.6-0.4-0.8
		c-0.8-1.4-1.1-1.4-2.2-0.3c-0.6,0.7-1.1,1.5-1.9,2.1c-2.8,2.2-3.3,5-3.2,8.4c0.2,9.7,0.1,19.4,0.1,29.1c0,0.6,0,1.1,0,1.9
		c-2.5,0-5,0-7.4,0c-3.8,0-3.8,0-3.8-3.8c0-33.5,0-67,0-100.5C440.9,51.8,440.9,51.2,440.9,50.3z"/>
	<path class="st1" d="M359.6,80.7c2.8,0,5.8,0,8.8,0c0.3,0,0.8,0.6,0.8,1c0.2,2.2,0.3,4.5,0.5,6.7c0.1,0.8,0.1,1.5,0.2,2.8
		c0.6-0.6,1.1-0.9,1.3-1.3c4.6-7,11.2-10.4,19.5-10.7c7.8-0.3,14.2,2.4,18.9,8.8c2.3,3.2,3.7,6.8,4.2,10.7c0.4,3.2,0.6,6.4,0.6,9.7
		c0.1,15.5,0,31,0.1,46.5c0,1.5-0.3,2.1-2,2.1c-2.3-0.1-4.7,0-7.1,0c-2.2,0-2.2,0-2.2-2.1c0-11,0-21.9,0-32.9c0-4.9,0.1-9.7,0-14.6
		c-0.1-3.3-0.5-6.7-1.8-9.8c-3.1-7.5-9.5-10.1-16.8-8.6c-8.3,1.8-13.5,8.9-13.5,18c0,15.9,0,31.8,0,47.6c0,2.3,0,2.3-2.3,2.3
		c-3,0-5.9,0-9.2,0C359.6,131.4,359.6,106.2,359.6,80.7z"/>
	<path class="st0" d="M163.7,9.3c-0.2-0.3-0.2-0.4-0.2-0.4c-0.5-4.5-0.5-4.5,4-4.5c107.2,0,214.3,0,321.5,0c3.1,0,2.8-0.4,2.8,2.9
		c0,2.1,0,2.1-2,2.1c-108.2,0-216.3,0-324.5,0C164.8,9.3,164.2,9.3,163.7,9.3z"/>
	<path class="st1" d="M302,147.4c0,3.2,0,6.2,0,9.2c-0.4,0-0.7,0.1-1,0.1c-15.5,0-31,0-46.5,0c-2.1,0-2.1,0-2.1-2.2
		c0-32.4,0-64.9,0-97.3c0-2.2,0-2.2,2.1-2.2c2.5,0,5,0,7.5,0c1.1,0,1.6,0.3,1.6,1.5c0,6.6,0,13.2,0,19.7c0,5.6-0.1,11.2-0.1,16.8
		c0,6.1,0,12.1,0,18.2c0,7.9,0.1,15.9,0.1,23.8c0,3.5,0.1,7,0,10.5c-0.1,1.5,0.5,1.9,1.9,1.9c11.5,0,23.1,0,34.6,0
		C300.6,147.4,301.2,147.4,302,147.4z"/>
	<path class="st0" d="M163.6,15.3c0.7,0,1.3,0,1.9,0c108.1,0,216.1,0,324.2,0c0.7,0,1.9,0.2,2,0.4c0.2,1.2,0.2,2.4,0,3.6
		c0,0.2-1.1,0.4-1.7,0.4c-10.3,0-20.7,0-31,0c-97.5,0-195,0-292.5,0c-3.4,0-3,0.7-3-3.1C163.4,16.2,163.5,15.9,163.6,15.3z"/>
	<path class="st0" d="M163.5,30c0-1.5,0-2.8,0-4.2c0.6,0,1.2-0.1,1.8-0.1c108.1,0,216.3,0,324.4,0c0.7,0,1.8,0.2,1.9,0.5
		c0.2,1.2,0.1,2.4,0,3.6c0,0.1-0.5,0.2-0.8,0.3c-0.6,0-1.1,0-1.7,0c-107.8,0-215.5,0-323.3,0C165.1,30,164.4,30,163.5,30z"/>
	<path class="st1" d="M333.1,118.7c0,12.1,0,24.1,0,36.2c0,1.5-0.4,2-1.9,1.9c-2.5-0.1-5-0.1-7.5,0c-1.6,0.1-2.1-0.4-2-2
		c0.1-20.6,0-41.1,0-61.7c0-3.6,0.1-7.1,0-10.6c0-1.5,0.5-1.9,1.9-1.8c2.7,0.1,5.3,0.1,8,0c1.3,0,1.6,0.4,1.6,1.6
		C333.1,94.4,333.1,106.5,333.1,118.7z"/>
	<path class="st0" d="M151.4,30c-0.5,0-1,0.1-1.5,0.1c-10.4,0-20.9,0-31.3,0c-0.7,0-1.5-0.2-2.2-0.5c-6.5-3.3-13-3.3-19.5,0
		c-0.6,0.3-1.3,0.6-1.9,0.6c-10.8,0-21.6,0-32.4,0c-0.3,0-0.5,0-0.9-0.1c0.4-1.1,0.8-2.1,1.1-3.1c0.3-0.9,0.8-1.2,1.8-1.2
		c3.9,0,7.7,0,11.6,0c23.8,0,47.5,0,71.3,0C150.3,25.7,151.2,26.6,151.4,30z"/>
	<path class="st0" d="M146.5,19.6c-26.7,0-53,0-79.4,0c0.9-2.5,3.3-4.3,5.8-4.3c22.3,0,44.6,0,66.9-0.1c2.4,0,4.1,0.8,5.4,2.6
		C145.5,18.4,146,18.9,146.5,19.6z"/>
	<path class="st0" d="M80.2,8.8c17.6-6.1,35.1-6,52.7,0c0,0.2,0,0.3,0,0.5c-17.6,0-35.1,0-52.7,0C80.2,9.1,80.2,8.9,80.2,8.8z"/>
	<path class="st1" d="M327.2,69c-3.9,0.4-7-3.1-6.8-7c0.2-4.2,2.9-7.1,7.1-7c4.4,0,6.9,2.7,7,7.3C334.5,66.1,331.8,69.2,327.2,69z"
		/>
	<path class="st0" d="M33.1,9.3c-0.8,0-1.3,0-1.8,0c-8.1,0-16.3,0-24.4,0C5.4,9.4,5,8.9,5,7.5c0.1-3.7-0.2-3.1,3.1-3.1
		c7.7,0,15.5,0,23.2,0c1.4,0,2,0.3,1.8,1.8C33,7.1,33.1,8.1,33.1,9.3z"/>
	<path class="st0" d="M33,25.8c0,1.4,0,2.7,0,4.1c-9.3,0-18.5,0-27.9,0c0-1.3,0-2.6,0-4.1C14.3,25.8,23.6,25.8,33,25.8z"/>
	<path class="st0" d="M33.1,19.7c-0.9,0-1.6,0-2.2,0c-7.9,0-15.8,0-23.6,0c-2.2,0-2.2,0-2.2-2.2c0-0.6,0-1.2,0-2
		c0.7,0,1.3-0.1,1.9-0.1c8,0,16.1,0,24.1,0c2.1,0,2.1,0,2.1,2.1C33.1,18.1,33.1,18.8,33.1,19.7z"/>
</g>
</svg>
